<svg xmlns="http://www.w3.org/2000/svg" width="16" height="16" viewBox="0 0 16 16">
    <g fill="none" fill-rule="evenodd">
        <g>
            <g>
                <g transform="translate(-538 -484) translate(538 484) translate(1 1)">
                    <circle cx="7" cy="7" r="7" fill="#000" fill-opacity=".7" stroke="#FFF"/>
                    <path fill="#FFF" fill-rule="nonzero" d="M7.725 7L9.85 4.875c.2-.2.2-.525 0-.725-.2-.2-.525-.2-.725 0L7 6.275 4.875 4.15c-.2-.2-.525-.2-.725 0-.2.2-.2.525 0 .725L6.275 7 4.15 9.125c-.2.2-.2.525 0 .725.1.1.231.15.363.15.13 0 .262-.05.362-.15L7 7.725 9.125 9.85c.1.1.231.15.362.15.132 0 .263-.05.363-.15.2-.2.2-.525 0-.725L7.725 7z"/>
                </g>
                <path d="M0 0H16V16H0z" transform="translate(-538 -484) translate(538 484)"/>
            </g>
        </g>
    </g>
</svg>
