<?xml version="1.0" encoding="UTF-8"?>
<svg width="60px" height="60px" viewBox="0 0 60 60" version="1.1" xmlns="http://www.w3.org/2000/svg" xmlns:xlink="http://www.w3.org/1999/xlink">
    <title>btn_SmudgeResistant_active</title>
    <defs>
        <circle id="path-1" cx="30" cy="30" r="22"></circle>
        <filter x="-20.5%" y="-20.5%" width="140.9%" height="140.9%" filterUnits="objectBoundingBox" id="filter-2">
            <feMorphology radius="2" operator="dilate" in="SourceAlpha" result="shadowSpreadOuter1"></feMorphology>
            <feOffset dx="0" dy="0" in="shadowSpreadOuter1" result="shadowOffsetOuter1"></feOffset>
            <feGaussianBlur stdDeviation="2" in="shadowOffsetOuter1" result="shadowBlurOuter1"></feGaussianBlur>
            <feComposite in="shadowBlurOuter1" in2="SourceAlpha" operator="out" result="shadowBlurOuter1"></feComposite>
            <feColorMatrix values="0 0 0 0 0   0 0 0 0 0   0 0 0 0 0  0 0 0 0.2 0" type="matrix" in="shadowBlurOuter1"></feColorMatrix>
        </filter>
    </defs>
    <g id="Blue-/-Bright-/-Drive" stroke="none" stroke-width="1" fill="none" fill-rule="evenodd">
        <g id="drive-layout-(active-buttons)" transform="translate(-524.000000, -676.000000)">
            <g id="btn_SmudgeResistant_active" transform="translate(524.000000, 676.000000)">
                <g id="btn_base">
                    <use fill="black" fill-opacity="1" filter="url(#filter-2)" xlink:href="#path-1"></use>
                    <use fill-opacity="0.3" fill="#FFFFFF" fill-rule="evenodd" xlink:href="#path-1"></use>
                    <use stroke="#FFFFFF" stroke-width="3" xlink:href="#path-1"></use>
                    <circle stroke="#000000" stroke-width="2" stroke-linejoin="square" cx="30" cy="30" r="21"></circle>
                </g>
                <g id="smudge" transform="translate(19.733333, 16.066667)" fill="#FFFFFF">
                    <path d="M20.0995717,14.6666667 C20.0349845,14.6666667 19.9648613,14.6514141 19.8901248,14.6212081 C18.3686359,13.9551804 18.3996993,12.7394629 18.5866945,10.6483691 C18.7549286,7.57124311 17.9315962,5.01778784 16.2074267,3.24998811 C14.7188466,1.72353745 12.6526727,0.883152192 10.3893543,0.883152192 C6.79923114,0.883152192 2.7059433,3.08699524 1.65501802,8.01087525 C1.57689832,8.33925355 1.33485027,8.38949722 1.19767945,8.38949722 C1.0454383,8.38949722 0.898733191,8.32609449 0.815077447,8.22381273 C0.73480484,8.12571794 0.713583347,7.99442643 0.751720524,7.83322798 C1.91705733,2.41947214 6.41878204,6.39488462e-14 10.3635194,6.39488462e-14 C12.8968737,6.39488462e-14 15.2041729,0.933694936 16.8603721,2.62852171 C18.7450868,4.5575199 19.6480767,7.34155774 19.4721536,10.6797713 L19.4656949,10.7682959 C19.3678915,12.1906704 19.2836206,13.4192478 20.3084035,13.7927856 C20.5673672,13.9082264 20.5430702,14.168716 20.5196958,14.2745866 C20.4775603,14.4632994 20.3280872,14.6666667 20.0995717,14.6666667 M0.439195554,17.6 C0.0455103045,17.6 0.00488956117,17.2231723 0.00152995082,17.1802617 C-0.00763262286,17.0599911 0.0125250392,16.7735174 0.401323583,16.7139865 C4.84425556,15.9962913 9.19434013,14.8274304 9.38950295,9.22729302 C9.38980837,8.85378936 9.63322741,8.8 9.77799607,8.8 C9.95972045,8.8 10.2666667,8.90606779 10.2666667,9.30314206 C10.0122525,14.9996772 6.19665144,16.7387658 0.545481408,17.5915388 C0.508220275,17.5969781 0.473097076,17.6 0.439195554,17.6 M20.1115115,17.6 C20.0562722,17.6 19.9959825,17.589694 19.9331676,17.5693851 C15.2217318,16.2035355 15.5067664,13.3778696 15.7820158,10.6449579 C15.9849806,8.10695105 15.6415502,6.2452004 13.3060341,4.78235302 C12.3256161,4.15459568 11.3183675,3.83510933 10.3161694,3.83510933 C7.99296378,3.83510933 5.88976823,5.6180493 4.95796075,8.3776354 L4.92765807,8.46099285 C4.23101203,10.3867014 3.77047439,11.6591907 1.09310614,11.6591907 C0.873411689,11.6591907 0.638250248,11.649794 0.393934871,11.6319101 L0.3595287,11.6303945 C0.0347218236,11.6303945 -2.4158453e-13,11.3412199 -2.4158453e-13,11.2166384 C-2.4158453e-13,11.1978451 0.00410348824,10.7568084 0.373101777,10.7568084 C0.387621812,10.7568084 0.402141847,10.7577178 0.417293189,10.7589303 C0.535031736,10.7637802 0.630674577,10.7655989 0.723160889,10.7655989 C3.26763925,10.7655989 3.68177591,9.27365216 4.01478976,8.07482054 C5.11799679,4.9624051 7.56336013,2.93333333 10.2359936,2.93333333 C11.4124321,2.93333333 12.5989715,3.3070778 13.7630996,4.04426074 C16.1207114,5.52772014 16.996017,7.53193623 16.6920432,10.7468055 C16.5086488,12.772543 16.2577047,15.544557 20.2257779,16.7482385 C20.5373273,16.8479643 20.5480595,17.0813651 20.5262795,17.2110996 C20.4943985,17.3984265 20.3510921,17.6 20.1115115,17.6 M1.2931832,20.5333333 C0.95429739,20.5333333 0.839655723,20.2489432 0.82516804,20.0809504 C0.815404602,19.964246 0.828632486,19.6866125 1.1649987,19.6319457 C6.65425586,18.6586928 11.312046,17.380473 12.7800262,11.5593824 C12.9923023,10.5274702 13.1790674,9.36104085 12.7614442,8.34264176 C12.4370461,7.47319429 11.2767716,6.75546249 10.1791722,6.75546249 C9.70359821,6.75546249 9.27747136,6.89182232 8.94677424,7.14980037 C8.36852672,7.60095485 7.9572025,8.50234246 7.65296115,9.98663763 C7.18778054,12.3830695 4.639838,14.8046849 0.667693223,14.8046849 C0.592420261,14.8046849 0.517462248,14.8034565 0.442504235,14.8013066 C0.0418883013,14.8013066 -2.4158453e-13,14.5052461 -2.4158453e-13,14.3780998 C-2.4158453e-13,14.3304967 0.0122830357,13.9165033 0.436205243,13.9165033 C0.453842422,13.9165033 0.52439114,13.9198816 0.52439114,13.9198816 C3.23295799,13.9198816 6.23537285,12.497624 6.73299327,9.77964095 C7.07943787,8.09203451 7.59847486,7.03125332 8.36474732,6.44988134 C8.85543885,6.06721389 9.47588963,5.86666667 10.1643695,5.86666667 C11.649987,5.86666667 13.1415884,6.79108803 13.6332248,8.01740514 C14.0064401,9.03549711 14.031951,10.2550577 13.7075529,11.7332105 C12.2572098,17.5539939 7.92003844,19.4148142 1.39333718,20.5259625 C1.36436181,20.5302622 1.32782766,20.5333333 1.2931832,20.5333333 M18.708553,20.5333333 C18.6716261,20.5333333 18.6311542,20.5279048 18.5892052,20.516409 C16.1576429,19.9898396 14.2235597,18.6374918 13.263165,16.8010451 C13.18488,16.6458524 13.1786763,16.4996008 13.2483942,16.3731475 C13.3269747,16.2297699 13.4891576,16.1333333 13.651636,16.1333333 C13.8126372,16.1333333 13.9479374,16.2243414 14.053696,16.4038029 C15.1343247,18.3896945 17.451266,19.301691 18.7360266,19.6670005 L18.7735443,19.6759417 C19.0373501,19.723202 19.0775265,19.9326802 19.0645283,20.1003266 C19.0533025,20.2500907 18.9640871,20.5333333 18.708553,20.5333333 M17.8847454,22.7333333 C17.8370455,22.7333333 17.785266,22.7271328 17.7312897,22.7156176 C14.8674114,22.0123026 12.9073212,21.0414799 11.7515395,19.7502975 L11.4879346,19.4556256 L11.1540352,19.6785487 C8.7404818,21.2900908 6.29962651,21.770778 3.47309223,22.3270523 C2.98479565,22.4230126 2.48928131,22.5207444 1.98529396,22.6261531 C1.92880721,22.6394399 1.88612833,22.6444594 1.84690142,22.6444594 C1.5754512,22.6444594 1.4809928,22.3825616 1.468754,22.2440836 C1.45745665,22.1171207 1.48287569,21.8977408 1.77786206,21.8516799 C2.14753647,21.7749116 2.49053657,21.7052297 2.83039853,21.6361383 C5.84741868,21.0246499 8.69717529,20.4465262 11.319102,18.3909095 C11.368371,18.3572496 11.449963,18.3333333 11.5453628,18.3333333 C11.709802,18.3333333 11.8883629,18.4065584 12.025814,18.5305686 C13.8544157,20.6077395 15.1840511,21.2062363 17.9980327,21.8454794 C18.3520164,21.9287433 18.3410328,22.2316825 18.3291079,22.3223281 C18.323773,22.3645506 18.2644619,22.7333333 17.8847454,22.7333333 M3.36686613,25.6666667 C3.06865429,25.6666667 2.9557916,25.3939792 2.93766999,25.2497067 C2.91795876,25.0945516 2.95610952,24.8946223 3.24923459,24.822797 C5.7687749,24.2282948 7.33518185,23.7137022 8.47875112,23.3380962 L8.81988257,23.2264716 C9.8706183,22.9074553 10.5535171,22.7333333 11.1273682,22.7333333 C11.8496894,22.7333333 12.4518357,23.0075754 13.7715343,23.609229 L14.1206139,23.7681153 C14.3657325,23.8710338 14.6095795,23.9683556 14.8734557,24.0737616 C15.3665544,24.2708925 15.926099,24.4944527 16.6064543,24.7963677 C16.8849549,24.9204297 16.8817757,25.1411914 16.8550702,25.2615222 C16.8159656,25.4378206 16.6684493,25.6268674 16.4363655,25.6268674 C16.3641969,25.6268674 16.285352,25.610077 16.2020562,25.5758745 C15.4501681,25.308162 14.8585133,25.046979 14.3361657,24.8165783 C14.1212497,24.7214331 13.9187327,24.6321956 13.7241638,24.5504205 C13.4695074,24.4422161 13.2441,24.3433397 13.0431726,24.255035 C12.1994048,23.8847149 11.7346012,23.6804325 11.1356342,23.6804325 C10.619963,23.6804325 10.0690023,23.8368313 9.10219825,24.1657975 C7.87278975,24.5665889 6.09464604,25.0382729 3.51183905,25.6476998 C3.45874589,25.660759 3.41105743,25.6666667 3.36686613,25.6666667 M6.27677031,27.8666667 C6.0435279,27.8666667 5.90419625,27.652253 5.87350646,27.4530163 C5.8523305,27.314487 5.86245813,27.0658447 6.17242502,26.9573462 C6.5290404,26.8394833 6.88258679,26.7164538 7.22754004,26.5966535 C8.66351537,26.0977543 9.90368983,25.6666667 11.1380332,25.6666667 C12.2984142,25.6666667 13.3486189,26.0564215 14.4417892,26.8934097 C14.6391246,27.0264494 14.6998904,27.1707911 14.6501729,27.3509761 C14.5921692,27.5611918 14.3985166,27.7320123 14.2192882,27.7320123 C14.132743,27.7320123 14.0443564,27.6945545 13.9559698,27.6206077 C13.0803901,26.9563775 12.1507963,26.6399237 11.0956813,26.6399237 C9.86839657,26.6399237 8.64264631,27.0716571 7.45740658,27.4891824 C7.12503614,27.6063995 6.7923588,27.7232937 6.45968147,27.8311463 C6.38878805,27.8556877 6.33047745,27.8666667 6.27677031,27.8666667" id="Fill-1"></path>
                </g>
            </g>
        </g>
    </g>
</svg>