<svg xmlns="http://www.w3.org/2000/svg" xmlns:xlink="http://www.w3.org/1999/xlink" width="60" height="60" viewBox="0 0 60 60">
    <defs>
        <filter id="prefix__a" width="135.8%" height="135.8%" x="-17.9%" y="-17.9%" filterUnits="objectBoundingBox">
            <feMorphology in="SourceAlpha" operator="dilate" radius=".867" result="shadowSpreadOuter1"/>
            <feOffset in="shadowSpreadOuter1" result="shadowOffsetOuter1"/>
            <feGaussianBlur in="shadowOffsetOuter1" result="shadowBlurOuter1" stdDeviation="2"/>
            <feComposite in="shadowBlurOuter1" in2="SourceAlpha" operator="out" result="shadowBlurOuter1"/>
            <feColorMatrix in="shadowBlurOuter1" values="0 0 0 0 0 0 0 0 0 0 0 0 0 0 0 0 0 0 0.200912369 0"/>
        </filter>
        <circle id="prefix__b" cx="30" cy="30" r="22"/>
    </defs>
    <g fill="none" fill-rule="evenodd">
        <use fill="#000" filter="url(#prefix__a)" xlink:href="#prefix__b"/>
        <use fill="#FFF" fill-opacity=".3" stroke="#FFF" stroke-opacity=".503" stroke-width=".733" xlink:href="#prefix__b"/>
        <g fill="#FFF">
            <path d="M20.1 14.667c-.065 0-.135-.016-.21-.046-1.521-.666-1.49-1.882-1.303-3.973.168-3.077-.655-5.63-2.38-7.398C14.72 1.724 12.653.883 10.39.883c-3.59 0-7.683 2.204-8.734 7.128-.078.328-.32.378-.457.378-.153 0-.3-.063-.383-.165-.08-.098-.101-.23-.063-.39C1.917 2.418 6.419 0 10.364 0c2.533 0 4.84.934 6.496 2.629 1.885 1.929 2.788 4.713 2.612 8.05l-.006.09c-.098 1.422-.182 2.65.842 3.024.26.115.235.376.212.482-.042.188-.192.392-.42.392M.44 17.6c-.394 0-.435-.377-.438-.42-.01-.12.01-.406.4-.466 4.442-.718 8.792-1.887 8.988-7.487 0-.373.243-.427.388-.427.182 0 .489.106.489.503C10.012 15 6.197 16.74.545 17.592c-.037.005-.072.008-.106.008m19.673 0c-.056 0-.116-.01-.179-.03-4.711-1.366-4.426-4.192-4.151-6.925.203-2.538-.14-4.4-2.476-5.863-.98-.627-1.988-.947-2.99-.947-2.323 0-4.426 1.783-5.358 4.543l-.03.083c-.697 1.926-1.158 3.198-3.835 3.198-.22 0-.455-.01-.7-.027L.36 11.63c-.325 0-.36-.289-.36-.413 0-.02.004-.46.373-.46.015 0 .03 0 .044.002.118.005.214.007.306.007 2.545 0 2.959-1.492 3.292-2.691 1.103-3.113 3.548-5.142 6.221-5.142 1.176 0 2.363.374 3.527 1.111 2.358 1.484 3.233 3.488 2.929 6.703-.183 2.026-.434 4.798 3.534 6.001.311.1.322.333.3.463-.032.187-.175.389-.414.389M1.293 20.533c-.339 0-.453-.284-.468-.452-.01-.117.004-.394.34-.45 5.49-.972 10.147-2.25 11.615-8.072.212-1.032.4-2.198-.019-3.216-.324-.87-1.484-1.588-2.582-1.588-.475 0-.902.137-1.232.395-.578.451-.99 1.352-1.294 2.837-.465 2.396-3.013 4.818-6.985 4.818-.076 0-.15-.002-.225-.004-.401 0-.443-.296-.443-.423 0-.048.012-.461.436-.461l.088.003c2.709 0 5.711-1.422 6.209-4.14.346-1.688.865-2.749 1.632-3.33.49-.383 1.11-.583 1.8-.583 1.485 0 2.977.924 3.468 2.15.373 1.018.399 2.238.075 3.716-1.45 5.821-5.788 7.682-12.315 8.793-.029.004-.065.007-.1.007m17.416 0c-.037 0-.078-.005-.12-.017-2.431-.526-4.365-1.879-5.326-3.715-.078-.155-.084-.301-.015-.428.079-.143.241-.24.404-.24.16 0 .296.091.402.27 1.08 1.987 3.397 2.899 4.682 3.264l.038.009c.263.047.304.257.29.424-.01.15-.1.433-.355.433m-.824 2.2c-.048 0-.1-.006-.154-.017-2.864-.704-4.824-1.675-5.98-2.966l-.263-.294-.334.223C8.74 21.29 6.3 21.77 3.474 22.327c-.49.096-.985.194-1.489.3-.056.012-.099.017-.138.017-.272 0-.366-.261-.378-.4-.012-.127.014-.346.309-.392.37-.077.713-.147 1.052-.216 3.017-.611 5.867-1.19 8.49-3.245.048-.034.13-.058.225-.058.165 0 .343.074.48.198 1.83 2.077 3.16 2.675 5.973 3.314.354.084.343.387.331.477-.005.043-.065.411-.444.411M3.367 25.667c-.298 0-.411-.273-.43-.417-.019-.155.02-.355.312-.427 2.52-.595 4.086-1.11 5.23-1.485l.34-.112c1.052-.319 1.735-.493 2.308-.493.723 0 1.325.275 2.645.876l.349.16c.245.102.489.2.752.305.494.197 1.053.42 1.733.722.279.124.276.345.25.466-.04.176-.188.365-.42.365-.072 0-.15-.017-.234-.051-.752-.268-1.343-.529-1.866-.76-.215-.095-.417-.184-.612-.266-.254-.108-.48-.207-.68-.295-.845-.37-1.31-.575-1.908-.575-.516 0-1.067.157-2.034.486-1.23.4-3.007.872-5.59 1.482-.053.013-.1.019-.145.019m2.91 2.2c-.233 0-.373-.215-.403-.414-.022-.139-.012-.387.298-.496.357-.118.71-.24 1.056-.36 1.436-.5 2.676-.93 3.91-.93 1.16 0 2.21.39 3.304 1.226.197.133.258.278.208.458-.058.21-.251.381-.43.381-.087 0-.176-.037-.264-.111-.876-.665-1.805-.981-2.86-.981-1.228 0-2.453.432-3.639.85-.332.116-.665.233-.997.341-.071.025-.13.036-.183.036" transform="translate(19.733 16.067)"/>
        </g>
    </g>
</svg>
