<?xml version="1.0" encoding="UTF-8"?>
<svg width="60px" height="60px" viewBox="0 0 60 60" version="1.1" xmlns="http://www.w3.org/2000/svg" xmlns:xlink="http://www.w3.org/1999/xlink">
    <title>btn_brightening_active</title>
    <defs>
        <circle id="path-1" cx="30" cy="30" r="22"></circle>
        <filter x="-20.5%" y="-20.5%" width="140.9%" height="140.9%" filterUnits="objectBoundingBox" id="filter-2">
            <feMorphology radius="2" operator="dilate" in="SourceAlpha" result="shadowSpreadOuter1"></feMorphology>
            <feOffset dx="0" dy="0" in="shadowSpreadOuter1" result="shadowOffsetOuter1"></feOffset>
            <feGaussianBlur stdDeviation="2" in="shadowOffsetOuter1" result="shadowBlurOuter1"></feGaussianBlur>
            <feComposite in="shadowBlurOuter1" in2="SourceAlpha" operator="out" result="shadowBlurOuter1"></feComposite>
            <feColorMatrix values="0 0 0 0 0   0 0 0 0 0   0 0 0 0 0  0 0 0 0.2 0" type="matrix" in="shadowBlurOuter1"></feColorMatrix>
        </filter>
    </defs>
    <g id="Blue-/-Bright-/-Drive" stroke="none" stroke-width="1" fill="none" fill-rule="evenodd">
        <g id="bright-layout-(active-buttons)" transform="translate(-272.000000, -676.000000)">
            <g id="btn_Brightening_active" transform="translate(272.000000, 676.000000)">
                <g id="btn_base">
                    <use fill="black" fill-opacity="1" filter="url(#filter-2)" xlink:href="#path-1"></use>
                    <use fill-opacity="0.3" fill="#FFFFFF" fill-rule="evenodd" xlink:href="#path-1"></use>
                    <use stroke="#FFFFFF" stroke-width="3" xlink:href="#path-1"></use>
                    <circle stroke="#000000" stroke-width="2" stroke-linejoin="square" cx="30" cy="30" r="21"></circle>
                </g>
                <g id="bright" transform="translate(17.533333, 17.533333)" fill="#FFFFFF">
                    <path d="M16.7336739,22.1291986 C16.9565773,22.1291986 17.1794806,22.2567444 17.2431673,22.4799496 L17.9437207,24.1699316 C18.0074074,24.2974774 18.0074074,24.4569097 17.9437207,24.6163419 C17.8800341,24.7438878 17.784504,24.8714336 17.6252874,24.90332 C17.5297573,24.90332 17.4660707,24.9352065 17.402384,24.9352065 C17.1794806,24.9352065 16.9565773,24.8076607 16.8928906,24.5844555 L16.1923372,22.8944735 C16.1286505,22.7669276 16.1286505,22.6074954 16.1923372,22.4799496 C16.2560238,22.3524038 16.3515539,22.2248579 16.5107705,22.161085 C16.5744572,22.1291986 16.6381439,22.1291986 16.7336739,22.1291986 Z M8.23150277,22.0973121 C8.29518944,22.0973121 8.39071946,22.0973121 8.45440613,22.1291986 C8.58177948,22.1929715 8.70915283,22.2886308 8.77283951,22.4480631 C8.83652618,22.5756089 8.83652618,22.7350412 8.77283951,22.8944735 L8.07228608,24.5844555 C7.97675607,24.7757742 7.78569604,24.9352065 7.56279268,24.9352065 C7.499106,24.9352065 7.40357599,24.9352065 7.33988931,24.90332 C7.21251596,24.8395471 7.08514261,24.7438878 7.02145594,24.5844555 C6.95776926,24.4250232 6.95776926,24.2974774 7.02145594,24.1380451 L7.72200937,22.4480631 C7.81753938,22.2248579 8.0085994,22.0973121 8.23150277,22.0973121 Z M2.30864198,16.1345454 C2.53154534,16.1345454 2.7544487,16.2620912 2.81813538,16.4852963 C2.88182205,16.6128422 2.88182205,16.7722744 2.81813538,16.9317067 C2.7544487,17.0592525 2.65891869,17.1867983 2.499702,17.2505712 L0.812005109,17.9520732 L0.589101745,17.9520732 L0.589101745,17.9520732 C0.366198382,17.9520732 0.143295019,17.8245274 0.079608344,17.6013222 C0.0159216688,17.4737764 0.0159216688,17.3143441 0.079608344,17.1867983 C0.143295019,17.0592525 0.238825032,16.9317067 0.39804172,16.8679338 L2.08573861,16.1664318 C2.14942529,16.1345454 2.21311196,16.1345454 2.30864198,16.1345454 Z M22.6246914,16.1026589 C22.688378,16.1026589 22.783908,16.1026589 22.8475947,16.1345454 L24.5352916,16.8360473 C24.662665,16.8998202 24.7900383,16.9954796 24.853725,17.1549119 C24.9174117,17.2824577 24.9174117,17.4418899 24.853725,17.5694358 C24.758195,17.8245274 24.567135,17.9520732 24.3442316,17.9520732 C24.2805449,17.9520732 24.1850149,17.9520732 24.1213282,17.9201867 L22.4336313,17.2186848 C22.306258,17.1549119 22.1788846,17.0592525 22.115198,16.8998202 C22.0515113,16.740388 22.0515113,16.6128422 22.115198,16.4534099 C22.210728,16.2302047 22.401788,16.1026589 22.6246914,16.1026589 Z M0.557258408,6.95124682 C0.620945083,6.95124682 0.716475096,6.95124682 0.780161771,6.98313327 L2.46785866,7.68463524 C2.7544487,7.81218106 2.88182205,8.13104559 2.78629204,8.41802367 C2.72260536,8.67311529 2.53154534,8.80066111 2.27679864,8.80066111 C2.21311196,8.80066111 2.11758195,8.80066111 2.05389527,8.76877465 L0.366198382,8.06727268 C0.238825032,8.00349978 0.111451682,7.90784042 0.0477650064,7.74840815 C-0.0159216688,7.62086234 -0.0159216688,7.46143007 0.0477650064,7.3019978 C0.143295019,7.07879263 0.334355045,6.95124682 0.557258408,6.95124682 Z M24.3760749,6.98313327 C24.5989783,6.98313327 24.8218817,7.11067908 24.8855683,7.33388426 C24.949255,7.46143007 24.949255,7.62086234 24.8855683,7.7802946 C24.8218817,7.90784042 24.7263516,8.03538623 24.567135,8.09915914 L22.8794381,8.80066111 L22.6565347,8.80066111 L22.6565347,8.80066111 C22.4336313,8.80066111 22.210728,8.67311529 22.1470413,8.44991012 C22.0196679,8.16293204 22.1788846,7.84406751 22.4654747,7.7165217 L24.1531716,7.01501972 C24.2168582,6.98313327 24.2805449,6.98313327 24.3760749,6.98313327 Z M7.59463602,1.23678845e-12 C7.81753938,1.23678845e-12 8.04044274,0.127545813 8.10412942,0.350750986 L8.80468284,2.04073301 C8.86836952,2.16827882 8.86836952,2.32771109 8.80468284,2.48714336 C8.74099617,2.61468917 8.64546616,2.74223498 8.48624947,2.80600789 C8.39071946,2.83789434 8.32703278,2.83789434 8.2633461,2.83789434 C8.04044274,2.83789434 7.81753938,2.71034853 7.7538527,2.48714336 L7.05329928,0.797161332 C6.9896126,0.669615519 6.9896126,0.510183253 7.05329928,0.350750986 C7.11698595,0.223205173 7.21251596,0.0956593599 7.37173265,0.0318864533 C7.43541933,1.23678845e-12 7.499106,1.23678845e-12 7.59463602,1.23678845e-12 Z M17.3386973,0.0318864533 C17.402384,0.0318864533 17.497914,0.0318864533 17.5616007,0.0637729066 C17.8481907,0.19131872 17.9755641,0.510183253 17.8800341,0.797161332 L17.1794806,2.48714336 C17.115794,2.71034853 16.9247339,2.83789434 16.6699872,2.83789434 C16.6063006,2.83789434 16.5107705,2.83789434 16.4470839,2.80600789 C16.1604938,2.67846208 16.0331205,2.35959754 16.1286505,2.07261946 L16.8292039,0.382637439 C16.9247339,0.159432266 17.115794,0.0318864533 17.3386973,0.0318864533 Z" id="Combined-Shape" stroke="#FFFFFF" stroke-width="0.5"></path>
                    <path d="M12.4666667,19.8 C11.4915974,19.8 10.557156,19.5962963 9.66334257,19.2296296 C7.83508772,18.4962963 6.45373961,17.0703704 5.68180979,15.237037 C4.95050785,13.4444444 4.95050785,11.4074074 5.68180979,9.61481481 C6.81939058,6.88518519 9.50083102,5.13333333 12.4666667,5.13333333 C13.4417359,5.13333333 14.3761773,5.33703704 15.2699908,5.7037037 C17.0982456,6.43703704 18.4795937,7.86296296 19.2515235,9.6962963 C19.9828255,11.5296296 19.9828255,13.5259259 19.2515235,15.3185185 C18.1139428,18.0481481 15.4325023,19.8 12.4666667,19.8 Z M12.4666667,6.72222222 C11.6947368,6.72222222 10.9634349,6.88518519 10.2727608,7.17037037 C7.34755309,8.39259259 5.96620499,11.7740741 7.14441367,14.7074074 C8.03822715,16.8666667 10.1102493,18.2518519 12.4666667,18.2518519 C13.2385965,18.2518519 13.9698984,18.0888889 14.6605725,17.8037037 C17.5857802,16.5814815 18.9671283,13.2 17.7889197,10.2666667 C16.8951062,8.10740741 14.7824561,6.72222222 12.4666667,6.72222222 Z" id="Shape"></path>
                    <path d="M12.177193,10.5561403 L12.177193,12.1771983 L10.5561404,12.1771983 C10.3962698,12.1771983 10.2666667,12.3067956 10.2666667,12.466673 C10.2666667,12.6265493 10.3962698,12.7561466 10.5561404,12.7561466 L12.177193,12.7561466 L12.177193,14.3771931 C12.177193,14.5370635 12.3067904,14.6666667 12.4666667,14.6666667 C12.626543,14.6666667 12.7561404,14.5370635 12.7561404,14.3771931 L12.7561404,12.7561466 L14.377193,12.7561466 C14.5370635,12.7561466 14.6666667,12.6265493 14.6666667,12.466673 C14.6666667,12.3067956 14.5370635,12.1771983 14.377193,12.1771983 L12.7561404,12.1771983 L12.7561404,10.5561403 C12.7561404,10.3962698 12.626543,10.2666667 12.4666667,10.2666667 C12.3067904,10.2666667 12.177193,10.3962698 12.177193,10.5561403 Z" id="Path" stroke="#FFFFFF" stroke-width="0.733333333"></path>
                </g>
            </g>
        </g>
    </g>
</svg>