<svg xmlns="http://www.w3.org/2000/svg" xmlns:xlink="http://www.w3.org/1999/xlink" width="60" height="60" viewBox="0 0 60 60">
    <defs>
        <filter id="prefix__a" width="135.8%" height="135.8%" x="-17.9%" y="-17.9%" filterUnits="objectBoundingBox">
            <feMorphology in="SourceAlpha" operator="dilate" radius=".867" result="shadowSpreadOuter1"/>
            <feOffset in="shadowSpreadOuter1" result="shadowOffsetOuter1"/>
            <feGaussianBlur in="shadowOffsetOuter1" result="shadowBlurOuter1" stdDeviation="2"/>
            <feComposite in="shadowBlurOuter1" in2="SourceAlpha" operator="out" result="shadowBlurOuter1"/>
            <feColorMatrix in="shadowBlurOuter1" values="0 0 0 0 0 0 0 0 0 0 0 0 0 0 0 0 0 0 0.200912369 0"/>
        </filter>
        <circle id="prefix__b" cx="30" cy="30" r="22"/>
    </defs>
    <g fill="none" fill-rule="evenodd">
        <use fill="#000" filter="url(#prefix__a)" xlink:href="#prefix__b"/>
        <use fill="#FFF" fill-opacity=".3" stroke="#FFF" stroke-opacity=".503" stroke-width=".733" xlink:href="#prefix__b"/>
        <g fill="#FFF" opacity=".7">
            <path stroke="#FFF" stroke-width=".5" d="M16.734 22.13c.223 0 .445.127.51.35l.7 1.69c.063.127.063.287 0 .446-.064.128-.16.255-.319.287-.095 0-.159.032-.223.032-.223 0-.445-.127-.51-.35l-.7-1.69c-.063-.128-.063-.288 0-.415.064-.128.16-.255.319-.319.063-.032.127-.032.223-.032zm-8.502-.033c.063 0 .159 0 .222.032.128.064.255.16.319.32.064.127.064.286 0 .445l-.7 1.69c-.096.192-.287.351-.51.351-.064 0-.16 0-.223-.032-.127-.063-.255-.16-.319-.319-.063-.159-.063-.287 0-.446l.701-1.69c.096-.223.287-.35.51-.35zm-5.923-5.962c.223 0 .445.127.51.35.063.128.063.287 0 .447-.065.127-.16.255-.32.319l-1.687.701H.589h0c-.223 0-.446-.127-.51-.35-.063-.128-.063-.288 0-.415.064-.128.16-.255.319-.32l1.688-.7c.063-.032.127-.032.223-.032zm20.316-.032c.063 0 .159 0 .223.032l1.687.701c.128.064.255.16.319.319.063.127.063.287 0 .414-.096.256-.287.383-.51.383-.063 0-.159 0-.223-.032l-1.687-.701c-.128-.064-.255-.16-.319-.32-.063-.159-.063-.286 0-.446.096-.223.287-.35.51-.35zM.557 6.95c.064 0 .16 0 .223.032l1.688.702c.286.127.414.446.318.733-.063.255-.254.383-.51.383-.063 0-.158 0-.222-.032L.366 8.067c-.127-.064-.255-.16-.318-.319-.064-.127-.064-.287 0-.446.095-.223.286-.35.51-.35zm23.82.032c.222 0 .445.128.509.35.063.128.063.288 0 .447-.064.128-.16.255-.319.32l-1.688.7h-.222 0c-.223 0-.446-.127-.51-.35-.127-.287.032-.606.318-.733l1.688-.702c.064-.032.128-.032.223-.032zM7.594 0c.223 0 .445.128.51.35l.7 1.69c.063.128.063.288 0 .447-.064.128-.16.255-.319.319-.095.032-.159.032-.223.032-.223 0-.445-.128-.51-.35l-.7-1.69C6.99.67 6.99.51 7.053.35c.064-.128.16-.255.319-.32C7.435 0 7.499 0 7.595 0zm9.744.032c.063 0 .159 0 .223.032.286.127.414.446.318.733l-.7 1.69c-.064.223-.255.35-.51.35-.064 0-.16 0-.223-.031-.287-.128-.414-.446-.318-.733l.7-1.69c.096-.224.287-.351.51-.351z" transform="translate(17.533 17.533)"/>
            <path d="M12.467 19.8c-.975 0-1.91-.204-2.804-.57-1.828-.734-3.21-2.16-3.981-3.993-.731-1.793-.731-3.83 0-5.622 1.137-2.73 3.819-4.482 6.785-4.482.975 0 1.91.204 2.803.57 1.828.734 3.21 2.16 3.982 3.993.73 1.834.73 3.83 0 5.623-1.138 2.73-3.82 4.481-6.785 4.481zm0-13.078c-.772 0-1.504.163-2.194.448-2.925 1.223-4.307 4.604-3.129 7.537.894 2.16 2.966 3.545 5.323 3.545.772 0 1.503-.163 2.194-.448 2.925-1.223 4.306-4.604 3.128-7.537-.894-2.16-3.007-3.545-5.322-3.545z" transform="translate(17.533 17.533)"/>
            <path stroke="#FFF" stroke-width=".733" d="M12.177 10.556v1.621h-1.62c-.16 0-.29.13-.29.29 0 .16.13.29.29.29h1.62v1.62c0 .16.13.29.29.29.16 0 .29-.13.29-.29v-1.62h1.62c.16 0 .29-.13.29-.29 0-.16-.13-.29-.29-.29h-1.62v-1.62c0-.16-.13-.29-.29-.29-.16 0-.29.13-.29.29z" transform="translate(17.533 17.533)"/>
        </g>
    </g>
</svg>
